<svg height="91.590965mm" viewBox="0 0 610.14911 91.590966" width="610.14911mm" xmlns="http://www.w3.org/2000/svg"><path d="m0 0h610.14911v91.590965h-610.14911z" fill="#050505" stroke-width="3.23064"/><g fill="#fafafa"><path d="m538.59503 5.23846c-.7832 0-.97851.0807-2.39885.99066-.8504.54484-2.80364 1.59934-4.34052 2.34345-8.92751 4.32245-15.49454 5.87764-24.82268 5.87799-3.29784.00013-3.44546.0131-3.93874.3488-.28186.19183-.65851.54596-.83686.7869-.31299.42279-.32384.60653-.31973 5.27063.005 6.14075.45047 11.3831 1.48176 17.46655 2.37365 14.00196 8.75709 26.42469 18.67521 36.34281 4.63369 4.6337 10.87398 9.30533 15.15278 11.34392 1.22796.58505 1.89459.46617 4.01414-.71545 7.36777-4.10744 14.92461-10.83518 20.28201-18.05726 6.23797-8.40913 10.43261-18.32847 12.22711-28.91402 1.02456-6.04377 1.47376-11.3092 1.48084-17.36209.005-4.4957-.0105-4.75463-.31306-5.27003-.17513-.29812-.55146-.69923-.83656-.89136-.49892-.3362-.64693-.34927-3.9448-.3494-9.32812-.00035-15.89516-1.55554-24.82267-5.87799-1.53688-.74411-3.49012-1.79861-4.34052-2.34345-1.42035-.90997-1.61565-.99066-2.39886-.99066zm0 5.10411 1.20139.67003c4.95661 2.76435 12.29338 5.70291 16.70327 6.69003.85261.19085 1.6058.39848 1.67372.46142.0678.063-1.01335.67956-2.40279 1.37034-4.16001 2.06819-6.83315 3.99161-10.4904 7.54868-2.27139 2.20918-3.99618 4.18869-5.57311 6.39604-.56341.78866-1.06386 1.43392-1.11208 1.43392-.0482 0-.54865-.64526-1.11208-1.43392-1.57693-2.20735-3.30171-4.18686-5.57309-6.39604-3.65728-3.55707-6.3304-5.48049-10.49042-7.54868-1.38944-.69078-2.47069-1.3074-2.40278-1.37034.0679-.0629.8211-.27057 1.67371-.46142 4.40989-.98712 11.74668-3.92568 16.70327-6.69003zm-31.18237 9.4955c.27679-.2768 8.30365 2.0617 8.81184 2.56719.14293.14217.11431.39124-.12656 1.10027-.80819 2.37896-.61659 5.33174.49109 7.56837 1.80669 3.64804 5.30939 5.85438 9.29447 5.85438 2.10491 0 4.37444-.69925 5.84166-1.79998.27141-.20361.59331-.37029.71546-.37029.37959 0 3.98416 5.43218 3.98416 6.00425 0 .31314 1.22983 1.26571 1.76334 1.3658.70088.13149 1.4957-.1369 1.98223-.66912.21253-.2325.75548-1.08537 1.20654-1.89535 1.07894-1.93747 3.09184-4.80558 3.37256-4.80558.12215 0 .44405.16668.71546.37029 1.46722 1.10073 3.73675 1.79998 5.84166 1.79998 3.98508 0 7.48777-2.20634 9.29445-5.85438 1.10769-2.23663 1.29928-5.18941.49109-7.56837-.24086-.70903-.26947-.9581-.12654-1.10027.50818-.50549 8.53504-2.84399 8.81184-2.56719.0676.0676-.12122.945-.41963 1.94984-1.70646 5.74597-4.75552 11.61507-8.38889 16.14799-5.47234 6.82719-11.78116 11.82588-19.96985 14.50182-.7701.25165-1.48098.45496-1.57986.45203-.32789-.01-3.56583-1.16814-5.14045-1.83903-10.99146-4.68306-20.61248-13.846-25.10758-25.39097-.97132-2.49467-1.92575-5.65442-1.75849-5.82168zm12.94587 6.20196 8.6862 5.0151c-.0429.1545-.36813.40762-.84897.64823-.96678.48375-2.58193.67059-3.59177.4157-1.5909-.40154-3.22867-1.76535-3.85609-3.21149-.34282-.79016-.45979-1.93593-.38937-2.86754zm36.48088.11384c.0507.91211-.0692 1.99757-.39937 2.75855-.46821 1.07928-1.70413 2.31465-2.81333 2.81243-1.11024.49825-2.68289.64666-3.7247.35122-.80613-.22861-1.52712-.62662-1.71943-.92406zm12.66732 7.59682c.15398-.0306.0814.97842-.21042 2.86755-.88678 5.74145-2.60433 11.55216-4.89217 16.55097-.65834 1.43843-.51969 1.35691-2.71131 1.59621-1.44448.15772-10.08936.3311-10.85132.21769-.21315-.0317-.99794-.1021-1.74396-.15653-.74603-.0544-1.35641-.15616-1.35641-.22617 0-.07.66977-.48514 1.48842-.92254 7.72629-4.12826 14.2942-10.31232 18.94196-17.83472.60579-.9805 1.1707-1.88736 1.25528-2.01525.0312-.0473.0579-.0728.08-.0772zm-61.81764.006c.0209.005.0457.028.0742.0711.0846.12789.64948 1.03476 1.25528 2.01525 7.18714 11.63239 19.21735 19.52015 32.6602 22.47801 4.97101 1.09379 7.90169 1.43696 14.30411 1.36823 2.61465-.0281 4.79894-.006 4.85372.0487.2224.2224-4.16019 6.32329-5.99637 8.34739l-.70455.77661-.98824-.0279c-8.9075-.25185-18.75611-3.41346-26.46551-8.49575-3.20435-2.11242-5.16308-3.71372-7.94593-6.49656-3.80451-3.80451-6.29569-7.18102-8.54116-11.57584-1.57437-3.08134-2.12708-4.51616-2.38402-6.19045-.22459-1.46355-.26759-2.35133-.12171-2.31893zm6.93254 22.90765c.0518-.0518.70582.49586 1.45361 1.21684 8.50781 8.20291 20.17102 13.79406 31.73069 15.21121.89756.11004 1.56278.26507 1.59863.37271.13853.41557-5.61026 4.84287-8.88602 6.84323-.86046.52544-1.73243.95427-1.93774.95251-.20529-.002-1.14065-.47794-2.07852-1.05848-7.37144-4.56301-13.83452-10.82816-18.81479-18.23862-1.5604-2.32181-3.20348-5.16178-3.06586-5.2994z" stroke-width=".585898"/><g transform="translate(0 -3.404554)"><g stroke-width=".636594" transform="matrix(.75219287 0 0 .75219287 -18.544726 -3.433917)"><text stroke-width=".223922" x="354.80823" y="187.48808"><tspan fill="#fafafa" stroke-width=".223922" x="354.80823" y="187.48808"/></text><path d="m81.860795 113.48985c5.091667 0 8.792439-3.97398 8.792439-9.21467 0-5.240694-3.700772-8.842117-8.792439-8.842117h-10.456546v18.056787zm-7.327034-3.15435v-11.748087h7.327034c3.253699 0 5.63809 2.434067 5.63809 5.836787 0 3.40273-2.384391 5.9113-5.63809 5.9113z"/><path d="m113.45396 113.48985-10.40687-17.286828c-.37256-.620935-.81964-1.018333-1.51509-1.018333-.69544 0-1.16735.397398-1.539914 1.018333l-10.382033 17.286828h3.601423l8.196344-13.859267 4.02366 6.755777h-5.538744l-1.490244 2.55825h8.544068l2.70727 4.54524z"/><path d="m121.12863 113.48985v-14.902437h6.85513v-3.15435h-16.8646v3.15435h6.85512v14.902437z"/><path d="m149.29421 113.48985-10.40688-17.286828c-.37256-.620935-.81963-1.018333-1.51508-1.018333-.69544 0-1.16735.397398-1.53992 1.018333l-10.38203 17.286828h3.60142l8.19635-13.859267 4.02365 6.755777h-5.53874l-1.49024 2.55825h8.54407l2.70727 4.54524z"/><path d="m184.141 113.48985-4.61975-16.988779c-.24838-.869309-.74513-1.291545-1.51508-1.291545-.67061 0-1.21704.372561-1.51509 1.068008l-5.56357 12.766426-5.56358-12.766426c-.29805-.695447-.91899-1.068008-1.58959-1.068008-.84448 0-1.34122.422236-1.56476 1.291545l-4.6446 16.988779h3.10468l3.4524-12.69191 5.09167 11.74809c.32288.76996.8693 1.1922 1.61443 1.1922.76996 0 1.2667-.42224 1.61443-1.1922l5.1165-11.74809 3.4524 12.69191z"/><path d="m189.55555 113.48985v-18.056787h-3.15435v18.056787z"/><path d="m208.48161 113.04278c.44707.44707.91898.67061 1.44057.67061.91898 0 1.56475-.69545 1.56475-1.88764v-16.541712h-3.00532v13.213502l-12.74159-12.642241c-.47191-.471911-.86931-.645773-1.34122-.645773-.99349 0-1.61443.720285-1.61443 1.887643v16.392681h3.00533v-13.21349z"/><path d="m217.87013 113.48985v-18.056787h-3.15435v18.056787z"/><path d="m236.79618 113.04278c.44708.44707.91899.67061 1.44057.67061.91899 0 1.56476-.69545 1.56476-1.88764v-16.541712h-3.00533v13.213502l-12.74158-12.642241c-.47191-.471911-.86931-.645773-1.34122-.645773-.9935 0-1.61443.720285-1.61443 1.887643v16.392681h3.00532v-13.21349z"/><path d="m262.00612 113.48985v-10.50622h-11.32585v2.6576h8.14667v4.69427h-7.72443c-3.2537 0-5.61326-2.50857-5.61326-5.9113 0-3.42756 2.38439-5.836787 5.61326-5.836787h9.78593v-3.15435h-9.78593c-5.042 0-8.76761 3.526911-8.76761 8.842117 0 5.24069 3.72561 9.21467 8.76761 9.21467z"/><path d="m277.33074 105.36802v-2.11118h-5.96098v2.11118z"/><path d="m302.49098 113.04278c.44707.44707.91898.67061 1.44057.67061.91898 0 1.56475-.69545 1.56475-1.88764v-16.541712h-3.00532v13.213502l-12.74159-12.642241c-.47191-.471911-.86931-.645773-1.34122-.645773-.99349 0-1.61443.720285-1.61443 1.887643v16.392681h3.00533v-13.21349z"/><path d="m321.19352 113.48985c5.14134 0 8.84211-3.97398 8.84211-9.21467 0-5.240694-3.62626-8.842117-8.84211-8.842117h-4.39622c-5.04199 0-8.7676 3.526911-8.7676 8.842117 0 5.24069 3.72561 9.21467 8.7676 9.21467zm-4.39622-3.15435c-3.2537 0-5.61325-2.50857-5.61325-5.9113 0-3.42756 2.38439-5.836787 5.61325-5.836787h4.39622c3.32821 0 5.68776 2.434067 5.68776 5.836787 0 3.40273-2.35955 5.9113-5.68776 5.9113z"/><path d="m343.0504 113.48985c5.09167 0 8.79244-3.97398 8.79244-9.21467 0-5.240694-3.70077-8.842117-8.79244-8.842117h-10.45655v18.056787zm-7.32703-3.15435v-11.748087h7.32703c3.2537 0 5.63809 2.434067 5.63809 5.836787 0 3.40273-2.38439 5.9113-5.63809 5.9113z"/><path d="m370.57023 113.48985v-3.15435h-13.0148v-11.748087h12.98996v-3.15435h-16.11947v18.056787zm-.69545-7.84862v-2.6576h-10.00947v2.6576z"/><path d="m399.72927 113.48985v-10.50622h-11.32586v2.6576h8.14667v4.69427h-7.72443c-3.2537 0-5.61325-2.50857-5.61325-5.9113 0-3.42756 2.38439-5.836787 5.61325-5.836787h9.78594v-3.15435h-9.78594c-5.04199 0-8.7676 3.526911-8.7676 8.842117 0 5.24069 3.72561 9.21467 8.7676 9.21467z"/><path d="m423.87118 113.48985-5.43939-5.48906c2.33472-.89415 3.72561-3.00533 3.72561-5.98582 0-4.023655-2.43406-6.581907-6.55707-6.581907h-12.96512v18.056787h3.12951v-14.902437h9.83561c2.16085 0 3.4524 1.14252 3.4524 3.477237 0 2.33471-1.1922 3.62626-3.4524 3.62626h-7.52573v2.78179h6.75577l4.57008 5.01715z"/><path d="m448.13732 113.48985-10.40687-17.286828c-.37256-.620935-.81963-1.018333-1.51508-1.018333s-1.16736.397398-1.53992 1.018333l-10.38203 17.286828h3.60142l8.19634-13.859267 4.02366 6.755777h-5.53874l-1.49024 2.55825h8.54406l2.70728 4.54524z"/><path d="m462.76651 108.4727c4.17268 0 6.60675-2.68244 6.60675-6.58191 0-3.94915-2.43407-6.457727-6.60675-6.457727h-12.69191v18.056787h3.12951v-14.902437h9.5624c2.21053 0 3.52691 1.316382 3.52691 3.402727 0 2.03666-1.31638 3.42756-3.52691 3.42756h-7.25252v3.055z"/><path d="m489.29282 113.56437v-18.131307h-3.15435v7.476057h-9.09048v2.80663h9.09048v7.84862zm-14.52988 0v-18.131307h-3.15435v18.131307z"/><path d="m505.9587 113.48985c3.77528 0 5.61325-2.2602 5.61325-5.29036 0-3.50208-1.96215-5.21586-5.61325-5.21586h-8.27086c-1.39089 0-2.2602-.81963-2.2602-2.18569 0-1.366056.84447-2.210527 2.28504-2.210527h12.96512v-3.15435h-12.96512c-3.60142 0-5.56358 2.160854-5.56358 5.066827 0 2.98049 2.11118 5.14134 5.51391 5.14134h8.29569c1.68894 0 2.63276.7948 2.63276 2.33472 0 1.41573-.94382 2.35955-2.63276 2.35955h-13.53638v3.15435z"/><path d="m526.69788 105.36802v-2.11118h-5.96098v2.11118z"/><path d="m548.92731 108.4727c4.17268 0 6.60675-2.68244 6.60675-6.58191 0-3.94915-2.43407-6.457727-6.60675-6.457727h-12.69191v18.056787h3.12951v-14.902437h9.5624c2.21053 0 3.52691 1.316382 3.52691 3.402727 0 2.03666-1.31638 3.42756-3.52691 3.42756h-7.25252v3.055z"/><path d="m573.06923 113.48985v-3.15435h-12.14549v-14.902437h-3.15435v18.056787z"/><path d="m591.4737 105.51705c0 3.62626-1.61443 5.1165-6.58191 5.1165s-6.58191-1.49024-6.58191-5.1165v-10.083987h-3.2537v10.083987c0 5.58841 2.78179 8.22118 9.73626 8.22118 7.00415 0 9.7611-2.63277 9.7611-8.22118v-10.083987h-3.07984z"/><path d="m616.5595 113.48985v-10.50622h-11.32585v2.6576h8.14666v4.69427h-7.72443c-3.2537 0-5.61325-2.50857-5.61325-5.9113 0-3.42756 2.38439-5.836787 5.61325-5.836787h9.78594v-3.15435h-9.78594c-5.04199 0-8.7676 3.526911-8.7676 8.842117 0 5.24069 3.72561 9.21467 8.7676 9.21467z"/><path d="m622.79362 113.48985v-18.056787h-3.15435v18.056787z"/><path d="m641.71972 113.04278c.44708.44707.91899.67061 1.44057.67061.91899 0 1.56476-.69545 1.56476-1.88764v-16.541712h-3.00533v13.213502l-12.74158-12.642241c-.47191-.471911-.86931-.645773-1.34122-.645773-.9935 0-1.61443.720285-1.61443 1.887643v16.392681h3.00532v-13.21349z"/><path d="m661.31636 113.48985c3.77529 0 5.61326-2.2602 5.61326-5.29036 0-3.50208-1.96216-5.21586-5.61326-5.21586h-8.27085c-1.39089 0-2.2602-.81963-2.2602-2.18569 0-1.366056.84447-2.210527 2.28504-2.210527h12.96512v-3.15435h-12.96512c-3.60143 0-5.56358 2.160854-5.56358 5.066827 0 2.98049 2.11118 5.14134 5.5139 5.14134h8.29569c1.68895 0 2.63277.7948 2.63277 2.33472 0 1.41573-.94382 2.35955-2.63277 2.35955h-13.53638v3.15435z"/></g><path d="m53.85122 59.028997q-4.080807 0-7.570972-1.503454-3.436469-1.557151-6.013821-4.188198-2.523657-2.684742-3.973418-6.335991-1.396065-3.651248-1.396065-7.893141 0-4.295586 1.396065-7.839446 1.449761-3.543858 3.973418-6.01382 2.577352-2.523658 6.013821-3.866028 3.490165-1.396066 7.570972-1.396066h21.155764v6.819244h-21.155764q-2.631047 0-4.886229.966507-2.201489.912812-3.812334 2.577352-1.610845 1.66454-2.523658 3.973418-.912812 2.308878-.912812 5.101008 0 2.738437.912812 5.101009.912813 2.362574 2.523658 4.080808 1.610845 1.66454 3.812334 2.631047 2.255182.966507 4.886229.966507h16.699094v-10.148323h-17.611906v-5.745347h24.484845v22.712914zm66.09836 0-9.87984-10.846356h-14.604999v-6.013822h16.269539q3.70494 0 5.58426-1.986708 1.87932-2.040405 1.87932-5.852737 0-3.812334-1.98672-5.637958-1.93301-1.879319-5.47686-1.879319h-21.263158v32.2169h-6.76555v-39.036144h28.028708q3.32908 0 5.96012 1.020201 2.63105.966508 4.45667 2.845827 1.82563 1.825624 2.79214 4.45667.9665 2.631049.9665 5.906434 0 4.886228-2.1478 8.215309-2.09409 3.275385-5.90643 4.725145l11.75918 11.866558zm53.90959 0-5.85272-9.826155h-18.47103l3.22169-5.530567h11.97395l-8.69857-14.604994-17.71929 29.961716h-7.78576l22.44444-37.371605q.59065-1.020201 1.39608-1.610844.80542-.590644 1.93301-.590644 1.1276 0 1.87931.590644.80543.590643 1.39607 1.610844l22.49813 37.371605zm24.1627-10.846356v-6.604465h15.67889q3.59756 0 5.58426-2.040404 2.04041-2.040404 2.04041-5.369483 0-3.382774-2.04041-5.369483-1.9867-1.986709-5.58426-1.986709h-20.67251v32.2169h-6.76555v-39.036144h27.43806q3.38277 0 6.01382 1.020201 2.68474.966508 4.51037 2.792132 1.82561 1.771929 2.79212 4.349282.96651 2.577351.96651 5.799042 0 3.167995-.96651 5.799042-.96651 2.577352-2.79212 4.456671-1.82563 1.879319-4.51037 2.953216-2.63105 1.020202-6.01382 1.020202zm66.20576 11.00744v-16.967567h-19.65231v-6.067517h19.65231v-16.162144h6.81924v39.197228zm-31.41148 0v-39.197228h6.81925v39.197228zm73.56194-.161084q-4.08081 0-7.57098-1.503454-3.43646-1.557151-6.01381-4.188198-2.52366-2.684742-3.97342-6.335991-1.39606-3.651248-1.39606-7.893141 0-4.295586 1.39606-7.839446 1.44976-3.543858 3.97342-6.01382 2.57735-2.523658 6.01381-3.866028 3.49017-1.396066 7.57098-1.396066h9.50399q4.24189 0 7.73204 1.396066 3.54387 1.396065 6.06753 3.919722 2.52365 2.523658 3.91972 6.067517 1.39606 3.490163 1.39606 7.732055 0 4.241893-1.44976 7.893141-1.39606 3.651249-3.97342 6.335991-2.52365 2.631047-6.01381 4.188198-3.49017 1.503454-7.67836 1.503454zm9.50399-6.819244q2.68474 0 4.93992-.966507 2.25518-.966507 3.86603-2.631047 1.66453-1.718234 2.57735-4.080808.91282-2.362572.91282-5.101009 0-2.738436-.91282-5.047314-.91282-2.362572-2.57735-4.027112-1.61085-1.66454-3.86603-2.577352-2.25518-.966507-4.93992-.966507h-9.50399q-2.63105 0-4.88624.966507-2.20148.912812-3.81232 2.577352-1.61085 1.66454-2.52366 3.973418-.91282 2.308878-.91282 5.101008 0 2.738437.91282 5.101009.91281 2.362574 2.52366 4.080808 1.61084 1.66454 3.81232 2.631047 2.25519.966507 4.88624.966507zm50.09726-6.228601-6.0675 11.437q-.59065 1.073896-1.50346 1.610845-.91281.536949-1.98671.536949-2.36257 0-3.54386-2.147794l-20.18925-37.425299h8.16161l15.78629 30.015412 5.90643-10.631577-10.14834-19.383835h8.21532l15.08825 30.015412 15.89367-30.015412h7.62466l-20.18925 37.425299q-.59064 1.073896-1.55715 1.610845-.91283.536949-1.98671.536949-1.0739 0-1.9867-.536949-.91283-.536949-1.50347-1.610845zm37.42529 13.047845v-39.036144h6.81925v32.2169h26.25677v6.819244zm37.96231 0v-6.819244h29.26368q2.73844 0 4.18819-1.396066 1.50347-1.396065 1.50347-3.704943 0-2.523657-1.50347-3.758638-1.44975-1.288676-4.18819-1.288676h-17.93408q-2.73843 0-4.99362-.805423-2.20148-.859117-3.75862-2.308878-1.50347-1.503455-2.36259-3.543859-.80542-2.040403-.80542-4.45667 0-2.362574.75174-4.349282.80542-2.040404 2.30887-3.490164 1.55715-1.449762 3.81233-2.255184 2.25519-.859117 5.15471-.859117h28.0287v6.819244h-28.0287q-2.36258 0-3.65125 1.288676-1.28868 1.234981-1.28868 3.490163 0 2.255184 1.28868 3.490165 1.34237 1.234982 3.59755 1.234982h17.88038q5.96013 0 9.02073 2.79213 3.1143 2.792132 3.1143 8.483785 0 2.469962-.75171 4.56406-.75174 2.0941-2.2552 3.65125-1.50345 1.503454-3.81233 2.362572-2.25518.859117-5.31579.859117z" stroke-width="53.2721"/></g></g></svg>