<svg height="90.639038mm" viewBox="0 0 603.80768 90.639039" width="603.80768mm" xmlns="http://www.w3.org/2000/svg"><g transform="translate(28.635257 3.242257)"><text fill="#1d1db8" stroke-width=".188211" x="209.87128" y="144.65463"><tspan fill="#1d1db8" stroke-width=".188211" x="209.87128" y="144.65463"/></text><path d="m534.21073-3.2422579c-.87517 0-1.09341.090176-2.68054 1.1069905-.95026.6088191-3.13286 1.78714615-4.85021 2.61863498-9.97585 4.83002362-17.31402 6.56783542-27.73754 6.56822652-3.6851.0001453-3.85005.014638-4.40126.3897586-.31496.2143561-.73584.6100706-.93513.8793036-.34974.4724371-.36187.6777532-.35727 5.8895467.006 6.861841.50336 12.719786 1.65576 19.517599 2.65238 15.646173 9.78541 29.52767 20.86819 40.610448 5.17781 5.177823 12.15088 10.39803 16.93213 12.676006 1.37215.653751 2.11706.520911 4.48551-.799463 8.23294-4.589766 16.67716-12.107526 22.66367-20.177675 6.97047-9.396592 11.65768-20.480733 13.6629-32.309316 1.14487-6.753473 1.64682-12.637208 1.65473-19.400873.006-5.0236183-.0117-5.3129538-.34982-5.8888758-.19569-.3331274-.61621-.7813387-.93479-.99603-.55751-.3756791-.7229-.3902838-4.40803-.3904291-10.4235-.0003911-17.76169-1.7382029-27.73753-6.56822652-1.71735-.83148883-3.89995-2.00981588-4.85021-2.61863498-1.58714-1.0168253-1.80538-1.1069905-2.68056-1.1069905zm0 5.7034718 1.34247.7487098c5.53865 3.0889602 13.73696 6.3725874 18.66469 7.4756223.95273.213261 1.79436.445273 1.87026.515604.0758.0704-1.13234.759358-2.68494 1.531255-4.64851 2.311052-7.63555 4.460334-11.72226 8.435101-2.53812 2.468598-4.46544 4.680557-6.22755 7.14711-.62957.88127-1.18878 1.602301-1.24267 1.602301-.0539 0-.61307-.721031-1.24266-1.602301-1.76211-2.466553-3.68943-4.678512-6.22753-7.14711-4.08674-3.974767-7.07376-6.124049-11.72228-8.435101-1.5526-.771897-2.76082-1.460925-2.68493-1.531255.0759-.07029.91752-.302343 1.87025-.515604 4.92773-1.1030349 13.12606-4.3866621 18.66469-7.4756223zm-34.84403 10.6105311c.3093-.309304 9.27873 2.3038 9.84659 2.868648.15972.158865.12774.437183-.14142 1.229472-.90309 2.658315-.68899 5.957832.54876 8.457103 2.01884 4.07642 5.93286 6.541844 10.38589 6.541844 2.35209 0 4.88812-.781361 6.52763-2.011346.30328-.22752.66298-.413772.79948-.413772.42416 0 4.45201 6.070066 4.45201 6.709312 0 .349912 1.37424 1.414339 1.9704 1.526183.78318.14693 1.67134-.152976 2.215-.747693.23749-.259802.84419-1.212822 1.34822-2.117916 1.20564-2.164982 3.45491-5.369886 3.76859-5.369886.13649 0 .49619.186252.79948.413772 1.63951 1.229985 4.17554 2.011346 6.52763 2.011346 4.45303 0 8.36703-2.465424 10.38587-6.541844 1.23776-2.499271 1.45185-5.798788.54876-8.457103-.26915-.792289-.30112-1.070607-.1414-1.229472.56785-.564848 9.53728-3.177952 9.84659-2.868648.0755.07554-.13546 1.055969-.46891 2.178805-1.90684 6.420703-5.31395 12.978996-9.37397 18.044205-6.11495 7.628888-13.16459 13.214561-22.31486 16.204729-.86053.281201-1.65489.508385-1.76538.505111-.36639-.01117-3.98455-1.305312-5.74408-2.054983-12.28215-5.232979-23.03295-15.471898-28.05589-28.372563-1.08538-2.787612-2.15189-6.318403-1.96499-6.505304zm14.46607 6.93024 9.7062 5.604009c-.0479.172643-.41136.455486-.94866.72435-1.08031.540556-2.88512.749336-4.01355.464515-1.77771-.448692-3.6078-1.972651-4.3089-3.588607-.38307-.882946-.51378-2.163261-.43509-3.204267zm40.76473.127208c.0567 1.019216-.0773 2.232139-.44626 3.082479-.5232 1.206017-1.90425 2.586453-3.1437 3.142686-1.24061.556758-2.99793.722595-4.16208.392463-.90079-.255456-1.70644-.700203-1.92134-1.03257zm14.15481 8.488894c.17206-.03419.091 1.093313-.23513 3.204278-.99091 6.415653-2.91015 12.908699-5.46664 18.494506-.73565 1.607341-.58072 1.516248-3.02969 1.783649-1.61411.17624-11.27413.36998-12.12556.243252-.23818-.03542-1.11513-.114089-1.94875-.17491-.83364-.06079-1.51569-.174498-1.51569-.252729 0-.07822.74842-.542109 1.6632-1.030871 8.63357-4.613031 15.97273-11.523268 21.16626-19.929003.67693-1.095638 1.30817-2.108988 1.40269-2.251896.0349-.05285.0647-.08135.0894-.08627zm-69.07672.0067c.0234.0056.0511.03129.0829.07945.0945.142908.72574 1.156269 1.40268 2.251896 8.03111 12.99835 21.47399 21.812348 36.4954 25.117542 5.55474 1.22223 8.82956 1.605698 15.9838 1.528897 2.92168-.0314 5.36247-.0067 5.42368.05442.24852.248516-4.64871 7.065817-6.70051 9.327601l-.78728.867806-1.10429-.03118c-9.95348-.281424-20.95859-3.814293-29.57328-9.493383-3.58063-2.360475-5.76937-4.149812-8.879-7.259433-4.25126-4.251263-7.03497-8.024268-9.54412-12.93516-1.75925-3.443173-2.37686-5.04648-2.66397-6.917378-.25097-1.63541-.29902-2.62744-.136-2.591235zm7.74661 25.597634c.0579-.05788.7887.554087 1.62431 1.35973 9.50685 9.166156 22.53964 15.413859 35.45674 16.997421 1.00295.122962 1.74629.296197 1.78635.416477.1548.464369-6.26906 5.411555-9.92948 7.646812-.9615.587141-1.93587 1.066327-2.16529 1.06436-.22939-.0022-1.27459-.534063-2.32259-1.182774-8.23705-5.098832-15.45907-12.099682-21.02416-20.380332-1.74364-2.594454-3.57966-5.767914-3.42588-5.921694z" fill="#1d1db8" stroke-width=".654698"/><text fill="#333" stroke-width="13" x="35.72324" y="-61.613918"><tspan stroke-width="13" x="35.72324" y="-61.613918"/></text><g fill="#1d1db8" transform="matrix(1.0315948 0 0 1.0315948 -5.67934 .351523)"><path d="m-21.226924 79.307756v-14.36232h8.317107q1.521182 0 2.805296.51365 1.284114.51364 2.212627 1.44215.928513.92852 1.442159 2.23239.533401 1.28411.533401 2.8448 0 1.5607-.533401 2.90408-.513646 1.34338-1.442159 2.33116-.928513.96802-2.212627 1.54093-1.284114.55316-2.805296.55316zm8.317107-2.50896q.968025 0 1.778004-.3556.829736-.3556 1.422404-.96802.612423-.63218.948268-1.50143.335846-.86925.335846-1.87678 0-1.00754-.335846-1.85703-.335845-.86925-.948268-1.48167-.592668-.61242-1.422404-.94827-.809979-.3556-1.778004-.3556h-5.827902v9.3444zm22.1065083 2.50896-2.1533603-3.61527h-6.79592646l1.18533596-2.03483h4.4054988l-3.2004072-5.37352-6.5193481 11.02362h-2.864562l8.2578409-13.7499q.2173116-.37535.5136456-.59266.296334-.21732.7112016-.21732.4148676 0 .691446.21732.296334.21731.5136456.59266l8.2775963 13.7499zm6.6181377 0v-11.85336h-5.452546v-2.50896h13.414052v2.50896h-5.452545v11.85336zm21.889207 0-2.153361-3.61527h-6.795926l1.185336-2.03483h4.405499l-3.200408-5.37352-6.519348 11.02362h-2.864562l8.257841-13.7499q.217312-.37535.513646-.59266.296334-.21732.711201-.21732.414868 0 .691446.21732.296334.21731.513646.59266l8.277596 13.7499zm28.250531 0-2.746028-10.09511-4.069654 9.3444q-.217311.45438-.533401.7112-.296334.23707-.750713.23707-.889002 0-1.284114-.94827l-4.049898-9.3444-2.746028 10.09511h-2.46945l3.694297-13.51283q.256823-1.02729 1.244603-1.02729.395112 0 .730957.21731.355601.21731.533401.63218l4.425255 10.15438 4.425254-10.15438q.355601-.84949 1.205092-.84949.908757 0 1.205091 1.02729l3.674542 13.51283zm4.286952 0v-14.36232h2.508962v14.36232zm7.467622-10.50998v10.50998h-2.390428v-13.03869q0-.69145.335845-1.08656.355601-.41487.948269-.41487.276579 0 .533401.11853.256823.11854.533402.39512l10.134622 10.0556v-10.50998h2.390428v13.15723q0 .7112-.355601 1.10631-.335845.39511-.889002.39511-.612423 0-1.145825-.5334zm15.053756 10.50998v-14.36232h2.508961v14.36232zm7.467623-10.50998v10.50998h-2.390429v-13.03869q0-.69145.335845-1.08656.355601-.41487.948269-.41487.276578 0 .533401.11853.256823.11854.533404.39512l10.13462 10.0556v-10.50998h2.39042v13.15723q0 .7112-.3556 1.10631-.33584.39511-.889.39511-.61242 0-1.14582-.5334zm21.47431 10.50998q-1.50143 0-2.78554-.55316-1.26436-.57291-2.21263-1.54093-.92851-.98778-1.46191-2.33116-.51365-1.34338-.51365-2.90408 0-1.58044.51365-2.88431.5334-1.30387 1.46191-2.21263.94827-.92851 2.21263-1.4224 1.28411-.51365 2.78554-.51365h7.7837v2.50896h-7.7837q-.96803 0-1.79776.3556-.80998.33585-1.40265.94827-.59267.61242-.92851 1.46192-.33585.84949-.33585 1.87678 0 1.00753.33585 1.87678.33584.86925.92851 1.50143.59267.61242 1.40265.96802.82973.3556 1.79776.3556h6.14399v-3.73381h-6.47984v-2.11385h9.00855v8.35662zm16.1206-6.46008v-1.67923h4.74134v1.67923zm12.3275 6.46008v-14.36232h12.82138v2.50896h-10.33218v9.3444h10.35194v2.50896zm4.32647-6.24277v-2.11385h7.96151v2.11385zm12.99919-4.26721v10.50998h-2.39042v-13.03869q0-.69145.33584-1.08656.3556-.41487.94827-.41487.27658 0 .5334.11853.25682.11854.5334.39512l10.13462 10.0556v-10.50998h2.39043v13.15723q0 .7112-.3556 1.10631-.33584.39511-.889.39511-.61242 0-1.14583-.5334zm19.51852 10.50998v-11.85336h-5.45254v-2.50896h13.41405v2.50896h-5.45254v11.85336zm9.75925 0v-14.36232h2.50896v14.36232zm9.73952 0v-11.85336h-5.45255v-2.50896h13.41406v2.50896h-5.45255v11.85336zm16.25884 0v-5.45254l-7.62566-8.90978h3.37821l5.59083 6.61813 5.61059-6.61813h3.20041l-7.64542 8.90978v5.45254zm24.02283 0q-1.50143 0-2.78554-.55316-1.26436-.57291-2.21263-1.54093-.92851-.98778-1.46191-2.33116-.51365-1.34338-.51365-2.90408 0-1.58044.51365-2.88431.5334-1.30387 1.46191-2.21263.94827-.92851 2.21263-1.4224 1.28411-.51365 2.78554-.51365h7.78371v2.50896h-7.78371q-.96802 0-1.79776.3556-.80998.33585-1.40265.94827-.59267.61242-.92851 1.46192-.33585.84949-.33585 1.87678 0 1.00753.33585 1.87678.33584.86925.92851 1.50143.59267.61242 1.40265.96802.82974.3556 1.79776.3556h6.14399v-3.73381h-6.47984v-2.11385h9.00856v8.35662zm24.31917 0-3.63503-3.99063h-5.37352v-2.21263h5.98594q1.36314 0 2.05459-.73095.69144-.75072.69144-2.15336 0-1.40265-.73096-2.07434-.7112-.69145-2.01507-.69145h-7.82321v11.85336h-2.48921v-14.36232h10.31242q1.22485 0 2.19287.37536.96803.3556 1.63972 1.04704.67169.67169 1.02729 1.63972.3556.96802.3556 2.17311 0 1.79776-.79022 3.02261-.77047 1.20509-2.17312 1.73849l4.32648 4.36599zm19.8346 0-2.15336-3.61527h-6.79593l1.18534-2.03483h4.4055l-3.20041-5.37352-6.51935 11.02362h-2.86456l8.25784-13.7499q.21731-.37535.51365-.59266.29633-.21732.7112-.21732.41487 0 .69144.21732.29634.21731.51365.59266l8.2776 13.7499zm8.89003-3.99063v-2.42994h5.76864q1.32362 0 2.05458-.75071.75071-.75071.75071-1.97556 0-1.2446-.75071-1.97556-.73096-.73096-2.05458-.73096h-7.60591v11.85336h-2.48921v-14.36232h10.09512q1.2446 0 2.21262.37536.98778.3556 1.65947 1.02729.67169.65193 1.0273 1.6002.3556.94827.3556 2.13361 0 1.16558-.3556 2.1336-.35561.94827-1.0273 1.63972-.67169.69144-1.65947 1.08655-.96802.37536-2.21262.37536zm24.35866 4.0499v-6.24277h-7.23055v-2.23238h7.23055v-5.94644h2.50896v14.42159zm-11.55702 0v-14.42159h2.50896v14.42159zm16.55517-.0593v-2.50896h10.76681q1.00753 0 1.54093-.51365.55316-.51364.55316-1.36313 0-.92851-.55316-1.38289-.5334-.47414-1.54093-.47414h-6.59838q-1.00753 0-1.83727-.29633-.80998-.31609-1.38289-.84949-.55315-.55316-.86924-1.30387-.29634-.75072-.29634-1.63972 0-.86924.27658-1.6002.29633-.75071.84949-1.28411.57291-.53341 1.40265-.82974.82973-.31609 1.89654-.31609h10.31242v2.50896h-10.31242q-.86925 0-1.34338.47414-.47414.45437-.47414 1.28411 0 .82974.47414 1.28411.49389.45438 1.32362.45438h6.57862q2.19287 0 3.31894 1.02729 1.14582 1.0273 1.14582 3.12139 0 .90876-.27658 1.67922-.27658.77047-.82973 1.34339-.55316.55315-1.40265.86924-.82974.31609-1.9558.31609zm22.5214-6.46008v-1.67923h4.74134v1.67923zm16.65396 2.46945v-2.42994h5.76863q1.32363 0 2.05458-.75071.75072-.75071.75072-1.97556 0-1.2446-.75072-1.97556-.73095-.73096-2.05458-.73096h-7.6059v11.85336h-2.48921v-14.36232h10.09511q1.2446 0 2.21263.37536.98778.3556 1.65947 1.02729.67169.65193 1.02729 1.6002.3556.94827.3556 2.13361 0 1.16558-.3556 2.1336-.3556.94827-1.02729 1.63972-.67169.69144-1.65947 1.08655-.96803.37536-2.21263.37536zm12.80163 3.99063v-14.36232h2.50896v11.85336h9.66049v2.50896zm26.80837-14.36232h2.44969v8.02077q0 1.65947-.43462 2.90408-.43462 1.22484-1.36314 2.03482-.92851.80998-2.41018 1.2051-1.46192.39511-3.55601.39511-2.07434 0-3.55601-.39511-1.46191-.39512-2.39042-1.2051-.92852-.80998-1.36314-2.03482-.43462-1.24461-.43462-2.90408v-8.02077h2.58798v8.02077q0 1.08656.25682 1.85703.27658.77047.86925 1.26436.61242.49389 1.61996.73096 1.00753.21731 2.4892.21731 1.48167 0 2.48921-.21731 1.00753-.23707 1.6002-.73096.61243-.49389.86925-1.26436.27658-.77047.27658-1.85703zm11.28046 14.36232q-1.50143 0-2.78554-.55316-1.26436-.57291-2.21263-1.54093-.92851-.98778-1.46191-2.33116-.51365-1.34338-.51365-2.90408 0-1.58044.51365-2.88431.5334-1.30387 1.46191-2.21263.94827-.92851 2.21263-1.4224 1.28411-.51365 2.78554-.51365h7.78371v2.50896h-7.78371q-.96802 0-1.79776.3556-.80998.33585-1.40265.94827-.59266.61242-.92851 1.46192-.33585.84949-.33585 1.87678 0 1.00753.33585 1.87678.33585.86925.92851 1.50143.59267.61242 1.40265.96802.82974.3556 1.79776.3556h6.14399v-3.73381h-6.47983v-2.11385h9.00855v8.35662zm11.1224 0v-14.36232h2.50896v14.36232zm7.46762-10.50998v10.50998h-2.39043v-13.03869q0-.69145.33585-1.08656.3556-.41487.94827-.41487.27658 0 .5334.11853.25682.11854.5334.39512l10.13462 10.0556v-10.50995h2.39043v13.15723q0 .7112-.3556 1.10631-.33585.39511-.889.39511-.61243 0-1.14583-.5334zm14.91548 10.50998v-2.50896h10.7668q1.00754 0 1.54094-.51365.55316-.51364.55316-1.36313 0-.92851-.55316-1.38289-.5334-.47414-1.54094-.47414h-6.59837q-1.00753 0-1.83727-.29633-.80998-.31609-1.38289-.84949-.55316-.55316-.86924-1.30387-.29634-.75072-.29634-1.63972 0-.86924.27658-1.6002.29633-.75071.84949-1.28411.57291-.53341 1.40265-.82974.82973-.31609 1.89654-.31609h10.31242v2.50896h-10.31242q-.86925 0-1.34339.47414-.47413.45437-.47413 1.28411 0 .82974.47413 1.28411.49389.45438 1.32363.45438h6.57861q2.19288 0 3.31895 1.02729 1.14582 1.0273 1.14582 3.12139 0 .90876-.27658 1.67922-.27658.77047-.82973 1.34339-.55316.55315-1.40265.86924-.82974.31609-1.95581.31609z" stroke-width="13"/><path d="m-.54712316 51.622926q-4.45230784 0-8.26020284-1.64032-3.749312-1.69891-6.561296-4.56948-2.753401-2.92915-4.335142-6.91279-1.523158-3.98364-1.523158-8.6117 0-4.68664 1.523158-8.55312 1.581741-3.86648 4.335142-6.5613 2.811984-2.7534 6.561296-4.21797 3.807895-1.5231598 8.26020284-1.5231598h23.08170216v7.4400398h-23.08170216q-2.87056684 0-5.33105284 1.0545-2.401903.99591-4.159393 2.81198-1.75749 1.81607-2.753401 4.33514-.995911 2.51907-.995911 5.56539 0 2.98773.995911 5.56538.995911 2.57765 2.753401 4.45231 1.75749 1.81607 4.159393 2.87057 2.460486 1.05449 5.33105284 1.05449h18.21931316v-11.07219h-19.2152242v-6.26838h26.7138482v24.78061zm72.11570116 0-10.779272-11.83376h-15.934576v-6.5613h17.750649q4.042227 0 6.092632-2.16757 2.050405-2.22616 2.050405-6.38555 0-4.15939-2.167571-6.15121-2.108988-2.05041-5.975466-2.05041h-23.198868v35.1498h-7.381458v-42.5898398h30.580326q3.632146 0 6.502713 1.1130798 2.870567 1.05449 4.862389 3.1049 1.991822 1.99182 3.046316 4.86239 1.054494 2.87056 1.054494 6.44413 0 5.33105-2.34332 8.96319-2.284737 3.57357-6.44413 5.15531l12.829677 12.94684zm58.817302 0-6.38555-10.72069h-20.15255l3.51498-6.03405h13.06401l-9.49045-15.93457-19.332385 32.68931h-8.494535l24.48769-40.77377q.64441-1.1130698 1.52316-1.7574898.87874-.64441 2.10899-.64441 1.23024 0 2.0504.64441.87875.64442 1.52316 1.7574898l24.54628 40.77377zm26.36237-11.83376v-7.20571h17.10623q3.92506 0 6.09264-2.22616 2.22615-2.22615 2.22615-5.8583 0-3.69073-2.22615-5.8583-2.16758-2.16757-6.09264-2.16757h-22.55445v35.1498h-7.38146v-42.5898398h29.93591q3.69073 0 6.5613 1.1130798 2.92915 1.05449 4.92097 3.04631 1.99182 1.93324 3.04632 4.74523 1.05449 2.81198 1.05449 6.32696 0 3.4564-1.05449 6.32696-1.0545 2.81199-3.04632 4.86239-1.99182 2.05041-4.92097 3.22207-2.87057 1.11308-6.5613 1.11308zm72.23288 12.00951v-18.51223h-21.44138v-6.61988h21.44138v-17.6334798h7.44004v42.7655898zm-34.27106 0v-42.7655898h7.44005v42.7655898zm80.2587-.17575q-4.4523 0-8.2602-1.64032-3.74931-1.69891-6.5613-4.56948-2.7534-2.92915-4.33514-6.91279-1.52316-3.98364-1.52316-8.6117 0-4.68664 1.52316-8.55312 1.58174-3.86648 4.33514-6.5613 2.81199-2.7534 6.5613-4.21797 3.8079-1.5231598 8.2602-1.5231598h10.36919q4.62806 0 8.43596 1.5231598 3.86647 1.52316 6.61988 4.27656 2.7534 2.7534 4.27655 6.61988 1.52316 3.80789 1.52316 8.43595 0 4.62806-1.58174 8.6117-1.52316 3.98364-4.33514 6.91279-2.7534 2.87057-6.5613 4.56948-3.80789 1.64032-8.37737 1.64032zm10.36919-7.44004q2.92915 0 5.38964-1.05449 2.46049-1.0545 4.21798-2.87057 1.81607-1.87466 2.81198-4.45231.99591-2.57765.99591-5.56538 0-2.98774-.99591-5.50681-.99591-2.57765-2.81198-4.39372-1.75749-1.81607-4.21798-2.81198-2.46049-1.0545-5.38964-1.0545h-10.36919q-2.87056 0-5.33105 1.0545-2.4019.99591-4.15939 2.81198-1.75749 1.81607-2.7534 4.33514-.99591 2.51907-.99591 5.56539 0 2.98773.99591 5.56538.99591 2.57765 2.7534 4.45231 1.75749 1.81607 4.15939 2.87057 2.46049 1.05449 5.33105 1.05449zm54.65797-6.79563-6.61988 12.47818q-.64441 1.17166-1.64032 1.75749-.99592.58583-2.16758.58583-2.57765 0-3.86647-2.34332l-22.02721-40.8323498h8.90461l17.22341 32.7478998 6.44413-11.59944-11.07219-21.1484598h8.9632l16.46182 32.7478998 17.34057-32.7478998h8.31879l-22.02721 40.8323498q-.64442 1.17166-1.69891 1.75749-.99591.58583-2.16757.58583-1.17166 0-2.16757-.58583-.99591-.58583-1.64033-1.75749zm40.83234 14.23567v-42.5898398h7.44004v35.1497998h28.64709v7.44004zm41.41821 0v-7.44004h31.92774q2.98773 0 4.56947-1.52316 1.64032-1.52316 1.64032-4.04222 0-2.75341-1.64032-4.10081-1.58174-1.406-4.56947-1.406h-19.56673q-2.98773 0-5.44821-.87874-2.40191-.93733-4.10081-2.51907-1.64033-1.64032-2.57766-3.86648-.87874-2.22615-.87874-4.86239 0-2.57765.82016-4.74522.87875-2.22615 2.51907-3.8079 1.69891-1.58174 4.15939-2.4604798 2.46049-.93733 5.62397-.93733h30.58033v7.4400398h-30.58033q-2.57765 0-3.98364 1.40599-1.406 1.34741-1.406 3.8079 0 2.46048 1.406 3.80789 1.46457 1.34741 3.92506 1.34741h19.50814q6.50271 0 9.84194 3.04632 3.39781 3.04631 3.39781 9.25611 0 2.69482-.82016 4.97956-.82016 2.28473-2.46048 3.98364-1.64033 1.64033-4.1594 2.57765-2.46048.93733-5.79971.93733z" stroke-width="38.5502"/></g></g></svg>