<?xml version="1.0" encoding="UTF-8" standalone="no"?>
<svg
   height="90.639038mm"
   viewBox="0 0 603.80768 90.639039"
   width="603.80768mm"
   version="1.1"
   id="svg47"
   sodipodi:docname="watermark.svg"
   xml:space="preserve"
   inkscape:version="1.4 (e7c3feb100, 2024-10-09)"
   inkscape:export-filename="watermark.png"
   inkscape:export-xdpi="96"
   inkscape:export-ydpi="96"
   xmlns:inkscape="http://www.inkscape.org/namespaces/inkscape"
   xmlns:sodipodi="http://sodipodi.sourceforge.net/DTD/sodipodi-0.dtd"
   xmlns="http://www.w3.org/2000/svg"
   xmlns:svg="http://www.w3.org/2000/svg"><defs
     id="defs47" /><sodipodi:namedview
     id="namedview47"
     pagecolor="#ffffff"
     bordercolor="#000000"
     borderopacity="0.25"
     inkscape:showpageshadow="2"
     inkscape:pageopacity="0.0"
     inkscape:pagecheckerboard="0"
     inkscape:deskcolor="#d1d1d1"
     inkscape:document-units="mm"
     inkscape:zoom="0.25000001"
     inkscape:cx="1194"
     inkscape:cy="77.999997"
     inkscape:window-width="1350"
     inkscape:window-height="696"
     inkscape:window-x="6"
     inkscape:window-y="34"
     inkscape:window-maximized="1"
     inkscape:current-layer="g1" /><filter
     id="a"
     color-interpolation-filters="sRGB"
     height="1.000018"
     width="1.000001"
     x="-1e-06"
     y="-9.0000003e-06"><feGaussianBlur
       stdDeviation=".00003851949"
       id="feGaussianBlur1" /></filter><g
     id="g55"
     transform="translate(28.635257,3.2422565)"><text
       fill="#000000"
       stroke-width="0.188211"
       x="209.87128"
       y="144.65463"
       id="text1"
       style="font-size:10.0863px;fill:#1d1db8;fill-opacity:1"><tspan
         stroke-width="0.188211"
         x="209.87128"
         y="144.65463"
         id="tspan1"
         style="fill:#1d1db8;fill-opacity:1" /></text><g
       id="g1"><path
         id="path1"
         style="fill:#1d1db8;fill-opacity:1;stroke-width:0.654698"
         d="m 534.21073,-3.2422579 c -0.87517,0 -1.09341,0.090176 -2.68054,1.1069905 -0.95026,0.6088191 -3.13286,1.78714615 -4.85021,2.61863498 -9.97585,4.83002362 -17.31402,6.56783542 -27.73754,6.56822652 -3.6851,1.453e-4 -3.85005,0.014638 -4.40126,0.3897586 -0.31496,0.2143561 -0.73584,0.6100706 -0.93513,0.8793036 -0.34974,0.4724371 -0.36187,0.6777532 -0.35727,5.8895467 0.006,6.861841 0.50336,12.719786 1.65576,19.517599 2.65238,15.646173 9.78541,29.52767 20.86819,40.610448 5.17781,5.177823 12.15088,10.39803 16.93213,12.676006 1.37215,0.653751 2.11706,0.520911 4.48551,-0.799463 8.23294,-4.589766 16.67716,-12.107526 22.66367,-20.177675 6.97047,-9.396592 11.65768,-20.480733 13.6629,-32.309316 1.14487,-6.753473 1.64682,-12.637208 1.65473,-19.400873 0.006,-5.0236183 -0.0117,-5.3129538 -0.34982,-5.8888758 -0.19569,-0.3331274 -0.61621,-0.7813387 -0.93479,-0.99603 -0.55751,-0.3756791 -0.7229,-0.3902838 -4.40803,-0.3904291 -10.4235,-3.911e-4 -17.76169,-1.7382029 -27.73753,-6.56822652 -1.71735,-0.83148883 -3.89995,-2.00981588 -4.85021,-2.61863498 -1.58714,-1.0168253 -1.80538,-1.1069905 -2.68056,-1.1069905 z m 0,5.7034718 1.34247,0.7487098 c 5.53865,3.0889602 13.73696,6.3725874 18.66469,7.4756223 0.95273,0.213261 1.79436,0.445273 1.87026,0.515604 0.0758,0.0704 -1.13234,0.759358 -2.68494,1.531255 -4.64851,2.311052 -7.63555,4.460334 -11.72226,8.435101 -2.53812,2.468598 -4.46544,4.680557 -6.22755,7.14711 -0.62957,0.88127 -1.18878,1.602301 -1.24267,1.602301 -0.0539,0 -0.61307,-0.721031 -1.24266,-1.602301 -1.76211,-2.466553 -3.68943,-4.678512 -6.22753,-7.14711 -4.08674,-3.974767 -7.07376,-6.124049 -11.72228,-8.435101 -1.5526,-0.771897 -2.76082,-1.460925 -2.68493,-1.531255 0.0759,-0.07029 0.91752,-0.302343 1.87025,-0.515604 4.92773,-1.1030349 13.12606,-4.3866621 18.66469,-7.4756223 z M 499.3667,13.071745 c 0.3093,-0.309304 9.27873,2.3038 9.84659,2.868648 0.15972,0.158865 0.12774,0.437183 -0.14142,1.229472 -0.90309,2.658315 -0.68899,5.957832 0.54876,8.457103 2.01884,4.07642 5.93286,6.541844 10.38589,6.541844 2.35209,0 4.88812,-0.781361 6.52763,-2.011346 0.30328,-0.22752 0.66298,-0.413772 0.79948,-0.413772 0.42416,0 4.45201,6.070066 4.45201,6.709312 0,0.349912 1.37424,1.414339 1.9704,1.526183 0.78318,0.14693 1.67134,-0.152976 2.215,-0.747693 0.23749,-0.259802 0.84419,-1.212822 1.34822,-2.117916 1.20564,-2.164982 3.45491,-5.369886 3.76859,-5.369886 0.13649,0 0.49619,0.186252 0.79948,0.413772 1.63951,1.229985 4.17554,2.011346 6.52763,2.011346 4.45303,0 8.36703,-2.465424 10.38587,-6.541844 1.23776,-2.499271 1.45185,-5.798788 0.54876,-8.457103 -0.26915,-0.792289 -0.30112,-1.070607 -0.1414,-1.229472 0.56785,-0.564848 9.53728,-3.177952 9.84659,-2.868648 0.0755,0.07554 -0.13546,1.055969 -0.46891,2.178805 -1.90684,6.420703 -5.31395,12.978996 -9.37397,18.044205 -6.11495,7.628888 -13.16459,13.214561 -22.31486,16.204729 -0.86053,0.281201 -1.65489,0.508385 -1.76538,0.505111 -0.36639,-0.01117 -3.98455,-1.305312 -5.74408,-2.054983 -12.28215,-5.232979 -23.03295,-15.471898 -28.05589,-28.372563 -1.08538,-2.787612 -2.15189,-6.318403 -1.96499,-6.505304 z m 14.46607,6.93024 9.7062,5.604009 c -0.0479,0.172643 -0.41136,0.455486 -0.94866,0.72435 -1.08031,0.540556 -2.88512,0.749336 -4.01355,0.464515 -1.77771,-0.448692 -3.6078,-1.972651 -4.3089,-3.588607 -0.38307,-0.882946 -0.51378,-2.163261 -0.43509,-3.204267 z m 40.76473,0.127208 c 0.0567,1.019216 -0.0773,2.232139 -0.44626,3.082479 -0.5232,1.206017 -1.90425,2.586453 -3.1437,3.142686 -1.24061,0.556758 -2.99793,0.722595 -4.16208,0.392463 -0.90079,-0.255456 -1.70644,-0.700203 -1.92134,-1.03257 z m 14.15481,8.488894 c 0.17206,-0.03419 0.091,1.093313 -0.23513,3.204278 -0.99091,6.415653 -2.91015,12.908699 -5.46664,18.494506 -0.73565,1.607341 -0.58072,1.516248 -3.02969,1.783649 -1.61411,0.17624 -11.27413,0.36998 -12.12556,0.243252 -0.23818,-0.03542 -1.11513,-0.114089 -1.94875,-0.17491 -0.83364,-0.06079 -1.51569,-0.174498 -1.51569,-0.252729 0,-0.07822 0.74842,-0.542109 1.6632,-1.030871 8.63357,-4.613031 15.97273,-11.523268 21.16626,-19.929003 0.67693,-1.095638 1.30817,-2.108988 1.40269,-2.251896 0.0349,-0.05285 0.0647,-0.08135 0.0894,-0.08627 z m -69.07672,0.0067 c 0.0234,0.0056 0.0511,0.03129 0.0829,0.07945 0.0945,0.142908 0.72574,1.156269 1.40268,2.251896 8.03111,12.99835 21.47399,21.812348 36.4954,25.117542 5.55474,1.22223 8.82956,1.605698 15.9838,1.528897 2.92168,-0.0314 5.36247,-0.0067 5.42368,0.05442 0.24852,0.248516 -4.64871,7.065817 -6.70051,9.327601 l -0.78728,0.867806 -1.10429,-0.03118 c -9.95348,-0.281424 -20.95859,-3.814293 -29.57328,-9.493383 -3.58063,-2.360475 -5.76937,-4.149812 -8.879,-7.259433 -4.25126,-4.251263 -7.03497,-8.024268 -9.54412,-12.93516 -1.75925,-3.443173 -2.37686,-5.04648 -2.66397,-6.917378 -0.25097,-1.63541 -0.29902,-2.62744 -0.136,-2.591235 z m 7.74661,25.597634 c 0.0579,-0.05788 0.7887,0.554087 1.62431,1.35973 9.50685,9.166156 22.53964,15.413859 35.45674,16.997421 1.00295,0.122962 1.74629,0.296197 1.78635,0.416477 0.1548,0.464369 -6.26906,5.411555 -9.92948,7.646812 -0.9615,0.587141 -1.93587,1.066327 -2.16529,1.06436 -0.22939,-0.0022 -1.27459,-0.534063 -2.32259,-1.182774 -8.23705,-5.098832 -15.45907,-12.099682 -21.02416,-20.380332 -1.74364,-2.594454 -3.57966,-5.767914 -3.42588,-5.921694 z" /><text
         xml:space="preserve"
         style="font-style:normal;font-size:19.75555556px;line-height:1.7;font-family:'Good Times';-inkscape-font-specification:'Good Times';text-align:start;letter-spacing:0px;writing-mode:lr-tb;direction:ltr;text-anchor:start;fill:#333333;stroke-width:13;font-weight:normal;font-stretch:normal;font-variant:normal"
         x="35.72324"
         y="-61.613918"
         id="text2"><tspan
           sodipodi:role="line"
           id="tspan2"
           style="stroke-width:13;font-size:19.75555556px;-inkscape-font-specification:'Good Times';font-family:'Good Times';font-weight:normal;font-style:normal;font-stretch:normal;font-variant:normal"
           x="35.72324"
           y="-61.613918" /></text><g
         id="g4"
         transform="matrix(1.0315948,0,0,1.0315948,-5.6793403,0.35152334)"><path
           d="m -21.226924,79.307756 v -14.36232 h 8.317107 q 1.521182,0 2.805296,0.51365 1.284114,0.51364 2.212627,1.44215 0.928513,0.92852 1.442159,2.23239 0.533401,1.28411 0.533401,2.8448 0,1.5607 -0.533401,2.90408 -0.513646,1.34338 -1.442159,2.33116 -0.928513,0.96802 -2.212627,1.54093 -1.284114,0.55316 -2.805296,0.55316 z m 8.317107,-2.50896 q 0.968025,0 1.778004,-0.3556 0.829736,-0.3556 1.422404,-0.96802 0.612423,-0.63218 0.948268,-1.50143 0.335846,-0.86925 0.335846,-1.87678 0,-1.00754 -0.335846,-1.85703 -0.335845,-0.86925 -0.948268,-1.48167 -0.592668,-0.61242 -1.422404,-0.94827 -0.809979,-0.3556 -1.778004,-0.3556 h -5.827902 v 9.3444 z M 9.1966913,79.307756 7.043331,75.692486 H 0.24740454 l 1.18533596,-2.03483 h 4.4054988 l -3.2004072,-5.37352 -6.5193481,11.02362 h -2.864562 l 8.2578409,-13.7499 q 0.2173116,-0.37535 0.5136456,-0.59266 0.296334,-0.21732 0.7112016,-0.21732 0.4148676,0 0.691446,0.21732 0.296334,0.21731 0.5136456,0.59266 l 8.2775963,13.7499 z m 6.6181377,0 v -11.85336 h -5.452546 v -2.50896 h 13.414052 v 2.50896 H 18.32379 v 11.85336 z m 21.889207,0 -2.153361,-3.61527 h -6.795926 l 1.185336,-2.03483 h 4.405499 l -3.200408,-5.37352 -6.519348,11.02362 h -2.864562 l 8.257841,-13.7499 q 0.217312,-0.37535 0.513646,-0.59266 0.296334,-0.21732 0.711201,-0.21732 0.414868,0 0.691446,0.21732 0.296334,0.21731 0.513646,0.59266 l 8.277596,13.7499 z m 28.250531,0 -2.746028,-10.09511 -4.069654,9.3444 q -0.217311,0.45438 -0.533401,0.7112 -0.296334,0.23707 -0.750713,0.23707 -0.889002,0 -1.284114,-0.94827 l -4.049898,-9.3444 -2.746028,10.09511 h -2.46945 l 3.694297,-13.51283 q 0.256823,-1.02729 1.244603,-1.02729 0.395112,0 0.730957,0.21731 0.355601,0.21731 0.533401,0.63218 l 4.425255,10.15438 4.425254,-10.15438 q 0.355601,-0.84949 1.205092,-0.84949 0.908757,0 1.205091,1.02729 l 3.674542,13.51283 z m 4.286952,0 v -14.36232 h 2.508962 v 14.36232 z m 7.467622,-10.50998 v 10.50998 h -2.390428 v -13.03869 q 0,-0.69145 0.335845,-1.08656 0.355601,-0.41487 0.948269,-0.41487 0.276579,0 0.533401,0.11853 0.256823,0.11854 0.533402,0.39512 l 10.134622,10.0556 v -10.50998 h 2.390428 v 13.15723 q 0,0.7112 -0.355601,1.10631 -0.335845,0.39511 -0.889002,0.39511 -0.612423,0 -1.145825,-0.5334 z m 15.053756,10.50998 v -14.36232 h 2.508961 v 14.36232 z m 7.467623,-10.50998 v 10.50998 h -2.390429 v -13.03869 q 0,-0.69145 0.335845,-1.08656 0.355601,-0.41487 0.948269,-0.41487 0.276578,0 0.533401,0.11853 0.256823,0.11854 0.533404,0.39512 l 10.13462,10.0556 v -10.50998 h 2.39042 v 13.15723 q 0,0.7112 -0.3556,1.10631 -0.33584,0.39511 -0.889,0.39511 -0.61242,0 -1.14582,-0.5334 z m 21.47431,10.50998 q -1.50143,0 -2.78554,-0.55316 -1.26436,-0.57291 -2.21263,-1.54093 -0.92851,-0.98778 -1.46191,-2.33116 -0.51365,-1.34338 -0.51365,-2.90408 0,-1.58044 0.51365,-2.88431 0.5334,-1.30387 1.46191,-2.21263 0.94827,-0.92851 2.21263,-1.4224 1.28411,-0.51365 2.78554,-0.51365 h 7.7837 v 2.50896 h -7.7837 q -0.96803,0 -1.79776,0.3556 -0.80998,0.33585 -1.40265,0.94827 -0.59267,0.61242 -0.92851,1.46192 -0.33585,0.84949 -0.33585,1.87678 0,1.00753 0.33585,1.87678 0.33584,0.86925 0.92851,1.50143 0.59267,0.61242 1.40265,0.96802 0.82973,0.3556 1.79776,0.3556 h 6.14399 v -3.73381 h -6.47984 v -2.11385 h 9.00855 v 8.35662 z m 16.1206,-6.46008 v -1.67923 h 4.74134 v 1.67923 z m 12.3275,6.46008 v -14.36232 h 12.82138 v 2.50896 h -10.33218 v 9.3444 h 10.35194 v 2.50896 z m 4.32647,-6.24277 v -2.11385 h 7.96151 v 2.11385 z m 12.99919,-4.26721 v 10.50998 h -2.39042 v -13.03869 q 0,-0.69145 0.33584,-1.08656 0.3556,-0.41487 0.94827,-0.41487 0.27658,0 0.5334,0.11853 0.25682,0.11854 0.5334,0.39512 l 10.13462,10.0556 v -10.50998 h 2.39043 v 13.15723 q 0,0.7112 -0.3556,1.10631 -0.33584,0.39511 -0.889,0.39511 -0.61242,0 -1.14583,-0.5334 z m 19.51852,10.50998 v -11.85336 h -5.45254 v -2.50896 h 13.41405 v 2.50896 h -5.45254 v 11.85336 z m 9.75925,0 v -14.36232 h 2.50896 v 14.36232 z m 9.73952,0 v -11.85336 h -5.45255 v -2.50896 h 13.41406 v 2.50896 h -5.45255 v 11.85336 z m 16.25884,0 v -5.45254 l -7.62566,-8.90978 h 3.37821 l 5.59083,6.61813 5.61059,-6.61813 h 3.20041 l -7.64542,8.90978 v 5.45254 z m 24.02283,0 q -1.50143,0 -2.78554,-0.55316 -1.26436,-0.57291 -2.21263,-1.54093 -0.92851,-0.98778 -1.46191,-2.33116 -0.51365,-1.34338 -0.51365,-2.90408 0,-1.58044 0.51365,-2.88431 0.5334,-1.30387 1.46191,-2.21263 0.94827,-0.92851 2.21263,-1.4224 1.28411,-0.51365 2.78554,-0.51365 h 7.78371 v 2.50896 h -7.78371 q -0.96802,0 -1.79776,0.3556 -0.80998,0.33585 -1.40265,0.94827 -0.59267,0.61242 -0.92851,1.46192 -0.33585,0.84949 -0.33585,1.87678 0,1.00753 0.33585,1.87678 0.33584,0.86925 0.92851,1.50143 0.59267,0.61242 1.40265,0.96802 0.82974,0.3556 1.79776,0.3556 h 6.14399 v -3.73381 h -6.47984 v -2.11385 h 9.00856 v 8.35662 z m 24.31917,0 -3.63503,-3.99063 h -5.37352 v -2.21263 h 5.98594 q 1.36314,0 2.05459,-0.73095 0.69144,-0.75072 0.69144,-2.15336 0,-1.40265 -0.73096,-2.07434 -0.7112,-0.69145 -2.01507,-0.69145 h -7.82321 v 11.85336 h -2.48921 v -14.36232 h 10.31242 q 1.22485,0 2.19287,0.37536 0.96803,0.3556 1.63972,1.04704 0.67169,0.67169 1.02729,1.63972 0.3556,0.96802 0.3556,2.17311 0,1.79776 -0.79022,3.02261 -0.77047,1.20509 -2.17312,1.73849 l 4.32648,4.36599 z m 19.8346,0 -2.15336,-3.61527 h -6.79593 l 1.18534,-2.03483 h 4.4055 l -3.20041,-5.37352 -6.51935,11.02362 h -2.86456 l 8.25784,-13.7499 q 0.21731,-0.37535 0.51365,-0.59266 0.29633,-0.21732 0.7112,-0.21732 0.41487,0 0.69144,0.21732 0.29634,0.21731 0.51365,0.59266 l 8.2776,13.7499 z m 8.89003,-3.99063 v -2.42994 h 5.76864 q 1.32362,0 2.05458,-0.75071 0.75071,-0.75071 0.75071,-1.97556 0,-1.2446 -0.75071,-1.97556 -0.73096,-0.73096 -2.05458,-0.73096 h -7.60591 v 11.85336 h -2.48921 v -14.36232 h 10.09512 q 1.2446,0 2.21262,0.37536 0.98778,0.3556 1.65947,1.02729 0.67169,0.65193 1.0273,1.6002 0.3556,0.94827 0.3556,2.13361 0,1.16558 -0.3556,2.1336 -0.35561,0.94827 -1.0273,1.63972 -0.67169,0.69144 -1.65947,1.08655 -0.96802,0.37536 -2.21262,0.37536 z m 24.35866,4.0499 v -6.24277 h -7.23055 v -2.23238 h 7.23055 v -5.94644 h 2.50896 v 14.42159 z m -11.55702,0 v -14.42159 h 2.50896 v 14.42159 z m 16.55517,-0.0593 v -2.50896 h 10.76681 q 1.00753,0 1.54093,-0.51365 0.55316,-0.51364 0.55316,-1.36313 0,-0.92851 -0.55316,-1.38289 -0.5334,-0.47414 -1.54093,-0.47414 h -6.59838 q -1.00753,0 -1.83727,-0.29633 -0.80998,-0.31609 -1.38289,-0.84949 -0.55315,-0.55316 -0.86924,-1.30387 -0.29634,-0.75072 -0.29634,-1.63972 0,-0.86924 0.27658,-1.6002 0.29633,-0.75071 0.84949,-1.28411 0.57291,-0.53341 1.40265,-0.82974 0.82973,-0.31609 1.89654,-0.31609 h 10.31242 v 2.50896 h -10.31242 q -0.86925,0 -1.34338,0.47414 -0.47414,0.45437 -0.47414,1.28411 0,0.82974 0.47414,1.28411 0.49389,0.45438 1.32362,0.45438 h 6.57862 q 2.19287,0 3.31894,1.02729 1.14582,1.0273 1.14582,3.12139 0,0.90876 -0.27658,1.67922 -0.27658,0.77047 -0.82973,1.34339 -0.55316,0.55315 -1.40265,0.86924 -0.82974,0.31609 -1.9558,0.31609 z m 22.5214,-6.46008 v -1.67923 h 4.74134 v 1.67923 z m 16.65396,2.46945 v -2.42994 h 5.76863 q 1.32363,0 2.05458,-0.75071 0.75072,-0.75071 0.75072,-1.97556 0,-1.2446 -0.75072,-1.97556 -0.73095,-0.73096 -2.05458,-0.73096 h -7.6059 v 11.85336 h -2.48921 v -14.36232 h 10.09511 q 1.2446,0 2.21263,0.37536 0.98778,0.3556 1.65947,1.02729 0.67169,0.65193 1.02729,1.6002 0.3556,0.94827 0.3556,2.13361 0,1.16558 -0.3556,2.1336 -0.3556,0.94827 -1.02729,1.63972 -0.67169,0.69144 -1.65947,1.08655 -0.96803,0.37536 -2.21263,0.37536 z m 12.80163,3.99063 v -14.36232 h 2.50896 v 11.85336 h 9.66049 v 2.50896 z m 26.80837,-14.36232 h 2.44969 v 8.02077 q 0,1.65947 -0.43462,2.90408 -0.43462,1.22484 -1.36314,2.03482 -0.92851,0.80998 -2.41018,1.2051 -1.46192,0.39511 -3.55601,0.39511 -2.07434,0 -3.55601,-0.39511 -1.46191,-0.39512 -2.39042,-1.2051 -0.92852,-0.80998 -1.36314,-2.03482 -0.43462,-1.24461 -0.43462,-2.90408 v -8.02077 h 2.58798 v 8.02077 q 0,1.08656 0.25682,1.85703 0.27658,0.77047 0.86925,1.26436 0.61242,0.49389 1.61996,0.73096 1.00753,0.21731 2.4892,0.21731 1.48167,0 2.48921,-0.21731 1.00753,-0.23707 1.6002,-0.73096 0.61243,-0.49389 0.86925,-1.26436 0.27658,-0.77047 0.27658,-1.85703 z m 11.28046,14.36232 q -1.50143,0 -2.78554,-0.55316 -1.26436,-0.57291 -2.21263,-1.54093 -0.92851,-0.98778 -1.46191,-2.33116 -0.51365,-1.34338 -0.51365,-2.90408 0,-1.58044 0.51365,-2.88431 0.5334,-1.30387 1.46191,-2.21263 0.94827,-0.92851 2.21263,-1.4224 1.28411,-0.51365 2.78554,-0.51365 h 7.78371 v 2.50896 h -7.78371 q -0.96802,0 -1.79776,0.3556 -0.80998,0.33585 -1.40265,0.94827 -0.59266,0.61242 -0.92851,1.46192 -0.33585,0.84949 -0.33585,1.87678 0,1.00753 0.33585,1.87678 0.33585,0.86925 0.92851,1.50143 0.59267,0.61242 1.40265,0.96802 0.82974,0.3556 1.79776,0.3556 h 6.14399 v -3.73381 h -6.47983 v -2.11385 h 9.00855 v 8.35662 z m 11.1224,0 v -14.36232 h 2.50896 v 14.36232 z m 7.46762,-10.50998 v 10.50998 h -2.39043 v -13.03869 q 0,-0.69145 0.33585,-1.08656 0.3556,-0.41487 0.94827,-0.41487 0.27658,0 0.5334,0.11853 0.25682,0.11854 0.5334,0.39512 l 10.13462,10.0556 v -10.50995 h 2.39043 v 13.15723 q 0,0.7112 -0.3556,1.10631 -0.33585,0.39511 -0.889,0.39511 -0.61243,0 -1.14583,-0.5334 z m 14.91548,10.50998 v -2.50896 h 10.7668 q 1.00754,0 1.54094,-0.51365 0.55316,-0.51364 0.55316,-1.36313 0,-0.92851 -0.55316,-1.38289 -0.5334,-0.47414 -1.54094,-0.47414 h -6.59837 q -1.00753,0 -1.83727,-0.29633 -0.80998,-0.31609 -1.38289,-0.84949 -0.55316,-0.55316 -0.86924,-1.30387 -0.29634,-0.75072 -0.29634,-1.63972 0,-0.86924 0.27658,-1.6002 0.29633,-0.75071 0.84949,-1.28411 0.57291,-0.53341 1.40265,-0.82974 0.82973,-0.31609 1.89654,-0.31609 h 10.31242 v 2.50896 h -10.31242 q -0.86925,0 -1.34339,0.47414 -0.47413,0.45437 -0.47413,1.28411 0,0.82974 0.47413,1.28411 0.49389,0.45438 1.32363,0.45438 h 6.57861 q 2.19288,0 3.31895,1.02729 1.14582,1.0273 1.14582,3.12139 0,0.90876 -0.27658,1.67922 -0.27658,0.77047 -0.82973,1.34339 -0.55316,0.55315 -1.40265,0.86924 -0.82974,0.31609 -1.95581,0.31609 z"
           id="text4"
           style="font-size:19.7556px;line-height:1.7;font-family:'Good Times';-inkscape-font-specification:'Good Times';letter-spacing:0px;fill:#1d1db8;stroke-width:13"
           aria-label="DATA MINING - ENTITY GRAPHS - PLUGINS" /><path
           d="m -0.54712316,51.622926 q -4.45230784,0 -8.26020284,-1.64032 -3.749312,-1.69891 -6.561296,-4.56948 -2.753401,-2.92915 -4.335142,-6.91279 -1.523158,-3.98364 -1.523158,-8.6117 0,-4.68664 1.523158,-8.55312 1.581741,-3.86648 4.335142,-6.5613 2.811984,-2.7534 6.561296,-4.21797 3.807895,-1.5231598 8.26020284,-1.5231598 H 22.534579 V 16.473126 H -0.54712316 q -2.87056684,0 -5.33105284,1.0545 -2.401903,0.99591 -4.159393,2.81198 -1.75749,1.81607 -2.753401,4.33514 -0.995911,2.51907 -0.995911,5.56539 0,2.98773 0.995911,5.56538 0.995911,2.57765 2.753401,4.45231 1.75749,1.81607 4.159393,2.87057 2.460486,1.05449 5.33105284,1.05449 H 17.67219 V 33.110696 H -1.5430342 v -6.26838 H 25.170814 v 24.78061 z m 72.11570116,0 -10.779272,-11.83376 H 44.85473 v -6.5613 h 17.750649 q 4.042227,0 6.092632,-2.16757 2.050405,-2.22616 2.050405,-6.38555 0,-4.15939 -2.167571,-6.15121 -2.108988,-2.05041 -5.975466,-2.05041 H 39.406511 v 35.1498 H 32.025053 V 9.0330862 h 30.580326 q 3.632146,0 6.502713,1.1130798 2.870567,1.05449 4.862389,3.1049 1.991822,1.99182 3.046316,4.86239 1.054494,2.87056 1.054494,6.44413 0,5.33105 -2.34332,8.96319 -2.284737,3.57357 -6.44413,5.15531 l 12.829677,12.94684 z m 58.817302,0 -6.38555,-10.72069 h -20.15255 l 3.51498,-6.03405 h 13.06401 l -9.49045,-15.93457 -19.332385,32.68931 H 83.1094 l 24.48769,-40.77377 q 0.64441,-1.1130698 1.52316,-1.7574898 0.87874,-0.64441 2.10899,-0.64441 1.23024,0 2.0504,0.64441 0.87875,0.64442 1.52316,1.7574898 l 24.54628,40.77377 z m 26.36237,-11.83376 v -7.20571 h 17.10623 q 3.92506,0 6.09264,-2.22616 2.22615,-2.22615 2.22615,-5.8583 0,-3.69073 -2.22615,-5.8583 -2.16758,-2.16757 -6.09264,-2.16757 h -22.55445 v 35.1498 h -7.38146 V 9.0330862 h 29.93591 q 3.69073,0 6.5613,1.1130798 2.92915,1.05449 4.92097,3.04631 1.99182,1.93324 3.04632,4.74523 1.05449,2.81198 1.05449,6.32696 0,3.4564 -1.05449,6.32696 -1.0545,2.81199 -3.04632,4.86239 -1.99182,2.05041 -4.92097,3.22207 -2.87057,1.11308 -6.5613,1.11308 z m 72.23288,12.00951 v -18.51223 h -21.44138 v -6.61988 h 21.44138 V 9.0330862 h 7.44004 V 51.798676 Z m -34.27106,0 V 9.0330862 h 7.44005 V 51.798676 Z m 80.2587,-0.17575 q -4.4523,0 -8.2602,-1.64032 -3.74931,-1.69891 -6.5613,-4.56948 -2.7534,-2.92915 -4.33514,-6.91279 -1.52316,-3.98364 -1.52316,-8.6117 0,-4.68664 1.52316,-8.55312 1.58174,-3.86648 4.33514,-6.5613 2.81199,-2.7534 6.5613,-4.21797 3.8079,-1.5231598 8.2602,-1.5231598 h 10.36919 q 4.62806,0 8.43596,1.5231598 3.86647,1.52316 6.61988,4.27656 2.7534,2.7534 4.27655,6.61988 1.52316,3.80789 1.52316,8.43595 0,4.62806 -1.58174,8.6117 -1.52316,3.98364 -4.33514,6.91279 -2.7534,2.87057 -6.5613,4.56948 -3.80789,1.64032 -8.37737,1.64032 z m 10.36919,-7.44004 q 2.92915,0 5.38964,-1.05449 2.46049,-1.0545 4.21798,-2.87057 1.81607,-1.87466 2.81198,-4.45231 0.99591,-2.57765 0.99591,-5.56538 0,-2.98774 -0.99591,-5.50681 -0.99591,-2.57765 -2.81198,-4.39372 -1.75749,-1.81607 -4.21798,-2.81198 -2.46049,-1.0545 -5.38964,-1.0545 h -10.36919 q -2.87056,0 -5.33105,1.0545 -2.4019,0.99591 -4.15939,2.81198 -1.75749,1.81607 -2.7534,4.33514 -0.99591,2.51907 -0.99591,5.56539 0,2.98773 0.99591,5.56538 0.99591,2.57765 2.7534,4.45231 1.75749,1.81607 4.15939,2.87057 2.46049,1.05449 5.33105,1.05449 z m 54.65797,-6.79563 -6.61988,12.47818 q -0.64441,1.17166 -1.64032,1.75749 -0.99592,0.58583 -2.16758,0.58583 -2.57765,0 -3.86647,-2.34332 L 303.67447,9.0330862 h 8.90461 l 17.22341,32.7478998 6.44413,-11.59944 -11.07219,-21.1484598 h 8.9632 L 350.59945,41.780986 367.94002,9.0330862 h 8.31879 L 354.2316,49.865436 q -0.64442,1.17166 -1.69891,1.75749 -0.99591,0.58583 -2.16757,0.58583 -1.17166,0 -2.16757,-0.58583 -0.99591,-0.58583 -1.64033,-1.75749 z m 40.83234,14.23567 V 9.0330862 h 7.44004 V 44.182886 h 28.64709 v 7.44004 z m 41.41821,0 v -7.44004 h 31.92774 q 2.98773,0 4.56947,-1.52316 1.64032,-1.52316 1.64032,-4.04222 0,-2.75341 -1.64032,-4.10081 -1.58174,-1.406 -4.56947,-1.406 h -19.56673 q -2.98773,0 -5.44821,-0.87874 -2.40191,-0.93733 -4.10081,-2.51907 -1.64033,-1.64032 -2.57766,-3.86648 -0.87874,-2.22615 -0.87874,-4.86239 0,-2.57765 0.82016,-4.74522 0.87875,-2.22615 2.51907,-3.8079 1.69891,-1.58174 4.15939,-2.4604798 2.46049,-0.93733 5.62397,-0.93733 h 30.58033 v 7.4400398 h -30.58033 q -2.57765,0 -3.98364,1.40599 -1.406,1.34741 -1.406,3.8079 0,2.46048 1.406,3.80789 1.46457,1.34741 3.92506,1.34741 h 19.50814 q 6.50271,0 9.84194,3.04632 3.39781,3.04631 3.39781,9.25611 0,2.69482 -0.82016,4.97956 -0.82016,2.28473 -2.46048,3.98364 -1.64033,1.64033 -4.1594,2.57765 -2.46048,0.93733 -5.79971,0.93733 z"
           id="text3"
           style="font-size:58.583px;line-height:1.7;font-family:'Good Times';-inkscape-font-specification:'Good Times';letter-spacing:0px;fill:#1d1db8;stroke-width:38.5502"
           aria-label="GRAPH OWLS" /></g></g></g></svg>
